<?xml version="1.0" standalone="no"?>
<!DOCTYPE svg PUBLIC "-//W3C//DTD SVG 20010904//EN"
 "http://www.w3.org/TR/2001/REC-SVG-20010904/DTD/svg10.dtd">
<svg version="1.0" xmlns="http://www.w3.org/2000/svg"
 width="500.000000pt" height="500.000000pt" viewBox="0 0 500.000000 500.000000"
 preserveAspectRatio="xMidYMid meet">

<g transform="translate(0.000000,500.000000) scale(0.100000,-0.100000)"
fill="#000000" stroke="none">
<path d="M990 4695 c0 -8 8 -15 18 -15 35 0 108 -31 145 -61 20 -17 49 -52 65
-77 l27 -47 5 -1045 5 -1045 28 -57 c19 -38 67 -99 140 -176 139 -147 171
-202 172 -293 0 -57 -4 -70 -29 -103 -56 -74 -160 -122 -330 -151 -238 -41
-405 1 -464 115 -19 37 -23 56 -19 110 5 85 37 148 134 270 42 52 90 124 107
160 29 61 31 72 31 175 -1 90 -5 120 -24 167 -48 123 -163 233 -289 279 -52
18 -87 24 -157 24 -70 0 -105 -6 -157 -24 -126 -46 -241 -155 -289 -279 -31
-77 -33 -272 -5 -372 108 -377 452 -634 896 -666 204 -15 460 52 637 168 181
118 305 279 374 483 l24 70 5 1085 c6 1235 -3 1129 95 1218 49 45 106 72 154
72 12 0 21 6 21 15 0 13 -80 15 -660 15 -580 0 -660 -2 -660 -15z"/>
<path d="M3380 4695 c0 -9 9 -15 24 -15 72 0 169 -65 212 -142 l29 -53 3
-1324 c3 -1470 7 -1377 -64 -1459 -38 -45 -126 -92 -173 -92 -21 0 -31 -5 -31
-15 0 -13 78 -15 663 -13 435 2 661 6 660 13 -1 6 -20 13 -42 17 -87 15 -184
94 -212 174 -12 32 -14 262 -14 1364 0 1483 -6 1354 72 1441 44 49 97 77 158
86 27 3 44 10 42 17 -3 8 -192 12 -665 14 -584 2 -662 0 -662 -13z"/>
<path d="M3036 2806 c-10 -65 -53 -110 -116 -121 l-45 -8 38 -8 c64 -15 93
-36 111 -79 9 -22 16 -53 17 -68 0 -19 4 -12 13 23 7 28 19 60 26 72 15 24 75
52 113 54 12 1 -2 8 -32 18 -63 19 -87 46 -105 117 l-13 49 -7 -49z"/>
<path d="M2831 2570 c-16 -105 -43 -171 -86 -209 -38 -33 -74 -46 -191 -70
l-85 -17 83 -13 c182 -28 240 -80 272 -247 24 -124 23 -123 25 -96 2 49 34
178 51 213 38 73 121 115 265 134 33 5 51 10 40 12 -264 47 -306 82 -344 286
l-17 92 -13 -85z"/>
</g>
</svg>
